# Blender 4.2.1 LTS
# www.blender.org
mtllib Cork.mtl
o Cork.001
v -0.000000 0.176983 0.109611
v 0.000000 0.177616 0.108958
v -0.000000 0.203005 0.108919
v 0.000000 0.202372 0.108300
v 0.001433 0.176983 0.109752
v 0.001561 0.177616 0.109111
v 0.001568 0.203005 0.109074
v 0.001689 0.202372 0.108466
v 0.002811 0.176983 0.110170
v 0.003061 0.177616 0.109567
v 0.003076 0.203005 0.109531
v 0.003313 0.202372 0.108959
v 0.004081 0.176983 0.110849
v 0.004444 0.177616 0.110306
v 0.004466 0.203005 0.110274
v 0.004810 0.202372 0.109759
v 0.005194 0.176983 0.111762
v 0.005656 0.177616 0.111301
v 0.005684 0.203005 0.111273
v 0.006122 0.202372 0.110835
v 0.006108 0.176983 0.112876
v 0.006651 0.177616 0.112513
v 0.006683 0.203005 0.112491
v 0.007198 0.202372 0.112147
v 0.006787 0.176983 0.114146
v 0.007390 0.177616 0.113896
v 0.007426 0.203005 0.113881
v 0.007998 0.202372 0.113644
v 0.007205 0.176983 0.115524
v 0.007845 0.177616 0.115396
v 0.007883 0.203005 0.115389
v 0.008491 0.202372 0.115268
v 0.007346 0.176983 0.116957
v 0.007999 0.177616 0.116957
v 0.008038 0.203005 0.116957
v 0.008657 0.202372 0.116957
v 0.007205 0.176983 0.118390
v 0.007845 0.177616 0.118517
v 0.007883 0.203005 0.118525
v 0.008491 0.202372 0.118646
v 0.006787 0.176983 0.119768
v 0.007390 0.177616 0.120018
v 0.007426 0.203005 0.120033
v 0.007998 0.202372 0.120270
v 0.006108 0.176983 0.121038
v 0.006651 0.177616 0.121401
v 0.006683 0.203005 0.121422
v 0.007198 0.202372 0.121767
v 0.005194 0.176983 0.122151
v 0.005656 0.177616 0.122613
v 0.005684 0.203005 0.122640
v 0.006122 0.202372 0.123078
v 0.004081 0.176983 0.123065
v 0.004444 0.177616 0.123608
v 0.004466 0.203005 0.123640
v 0.004810 0.202372 0.124155
v 0.002811 0.176983 0.123744
v 0.003061 0.177616 0.124347
v 0.003076 0.203005 0.124383
v 0.003313 0.202372 0.124955
v 0.001433 0.176983 0.124162
v 0.001561 0.177616 0.124802
v 0.001568 0.203005 0.124840
v 0.001689 0.202372 0.125448
v -0.000000 0.176983 0.124303
v -0.000000 0.177616 0.124956
v -0.000000 0.203005 0.124995
v -0.000000 0.202372 0.125614
v -0.001433 0.176983 0.124162
v -0.001561 0.177616 0.124802
v -0.001568 0.203005 0.124840
v -0.001689 0.202372 0.125448
v -0.002811 0.176983 0.123744
v -0.003061 0.177616 0.124347
v -0.003076 0.203005 0.124383
v -0.003313 0.202372 0.124955
v -0.004081 0.176983 0.123065
v -0.004444 0.177616 0.123608
v -0.004466 0.203005 0.123640
v -0.004810 0.202372 0.124155
v -0.005194 0.176983 0.122151
v -0.005656 0.177616 0.122613
v -0.005684 0.203005 0.122640
v -0.006122 0.202372 0.123078
v -0.006108 0.176983 0.121038
v -0.006651 0.177616 0.121401
v -0.006683 0.203005 0.121422
v -0.007198 0.202372 0.121767
v -0.006787 0.176983 0.119768
v -0.007390 0.177616 0.120018
v -0.007426 0.203005 0.120033
v -0.007998 0.202372 0.120270
v -0.007205 0.176983 0.118390
v -0.007845 0.177616 0.118517
v -0.007883 0.203005 0.118525
v -0.008491 0.202372 0.118646
v -0.007346 0.176983 0.116957
v -0.007999 0.177616 0.116957
v -0.008038 0.203005 0.116957
v -0.008657 0.202372 0.116957
v -0.007205 0.176983 0.115524
v -0.007845 0.177616 0.115396
v -0.007883 0.203005 0.115389
v -0.008491 0.202372 0.115268
v -0.006787 0.176983 0.114146
v -0.007390 0.177616 0.113896
v -0.007426 0.203005 0.113881
v -0.007998 0.202372 0.113644
v -0.006108 0.176983 0.112876
v -0.006651 0.177616 0.112513
v -0.006683 0.203005 0.112491
v -0.007198 0.202372 0.112147
v -0.005194 0.176983 0.111762
v -0.005656 0.177616 0.111301
v -0.005684 0.203005 0.111273
v -0.006122 0.202372 0.110835
v -0.004081 0.176983 0.110849
v -0.004444 0.177616 0.110306
v -0.004466 0.203005 0.110274
v -0.004810 0.202372 0.109759
v -0.002811 0.176983 0.110170
v -0.003061 0.177616 0.109567
v -0.003076 0.203005 0.109531
v -0.003313 0.202372 0.108959
v -0.001433 0.176983 0.109752
v -0.001561 0.177616 0.109111
v -0.001568 0.203005 0.109074
v -0.001689 0.202372 0.108466
vn -0.0000 -0.9186 -0.3952
vn -0.0000 -0.3937 -0.9192
vn -0.0000 0.9130 -0.4079
vn -0.0000 0.3573 -0.9340
vn 0.0771 -0.9186 -0.3876
vn 0.1793 -0.3937 -0.9016
vn 0.0796 0.9130 -0.4000
vn 0.1822 0.3573 -0.9160
vn 0.1513 -0.9186 -0.3652
vn 0.3518 -0.3937 -0.8493
vn 0.1561 0.9130 -0.3768
vn 0.3574 0.3573 -0.8629
vn 0.2196 -0.9186 -0.3286
vn 0.5107 -0.3937 -0.7643
vn 0.2266 0.9130 -0.3391
vn 0.5189 0.3573 -0.7766
vn 0.2795 -0.9186 -0.2795
vn 0.6500 -0.3937 -0.6500
vn 0.2884 0.9130 -0.2884
vn 0.6604 0.3573 -0.6604
vn 0.3286 -0.9186 -0.2196
vn 0.7643 -0.3937 -0.5107
vn 0.3391 0.9130 -0.2266
vn 0.7766 0.3573 -0.5189
vn 0.3652 -0.9186 -0.1513
vn 0.8493 -0.3937 -0.3518
vn 0.3768 0.9130 -0.1561
vn 0.8629 0.3573 -0.3574
vn 0.3876 -0.9186 -0.0771
vn 0.9016 -0.3937 -0.1793
vn 0.4000 0.9130 -0.0796
vn 0.9160 0.3573 -0.1822
vn 0.3952 -0.9186 -0.0000
vn 0.9192 -0.3937 -0.0000
vn 0.4079 0.9130 -0.0000
vn 0.9340 0.3573 -0.0000
vn 0.3876 -0.9186 0.0771
vn 0.9016 -0.3937 0.1793
vn 0.4000 0.9130 0.0796
vn 0.9160 0.3573 0.1822
vn 0.3652 -0.9186 0.1513
vn 0.8493 -0.3937 0.3518
vn 0.3768 0.9130 0.1561
vn 0.8629 0.3573 0.3574
vn 0.3286 -0.9186 0.2196
vn 0.7643 -0.3937 0.5107
vn 0.3391 0.9130 0.2266
vn 0.7766 0.3573 0.5189
vn 0.2795 -0.9186 0.2795
vn 0.6500 -0.3937 0.6500
vn 0.2884 0.9130 0.2884
vn 0.6604 0.3573 0.6604
vn 0.2196 -0.9186 0.3286
vn 0.5107 -0.3937 0.7643
vn 0.2266 0.9130 0.3391
vn 0.5189 0.3573 0.7766
vn 0.1513 -0.9186 0.3652
vn 0.3518 -0.3937 0.8493
vn 0.1561 0.9130 0.3768
vn 0.3574 0.3573 0.8629
vn 0.0771 -0.9186 0.3876
vn 0.1793 -0.3937 0.9016
vn 0.0796 0.9130 0.4000
vn 0.1822 0.3573 0.9160
vn -0.0000 -0.9186 0.3952
vn -0.0000 -0.3937 0.9192
vn -0.0000 0.9130 0.4079
vn -0.0000 0.3573 0.9340
vn -0.0771 -0.9186 0.3876
vn -0.1793 -0.3937 0.9016
vn -0.0796 0.9130 0.4000
vn -0.1822 0.3573 0.9160
vn -0.1513 -0.9186 0.3652
vn -0.3518 -0.3937 0.8493
vn -0.1561 0.9130 0.3768
vn -0.3574 0.3573 0.8629
vn -0.2196 -0.9186 0.3286
vn -0.5107 -0.3937 0.7643
vn -0.2266 0.9130 0.3391
vn -0.5189 0.3573 0.7766
vn -0.2795 -0.9186 0.2795
vn -0.6500 -0.3937 0.6500
vn -0.2884 0.9130 0.2884
vn -0.6604 0.3573 0.6604
vn -0.3286 -0.9186 0.2196
vn -0.7643 -0.3937 0.5107
vn -0.3391 0.9130 0.2266
vn -0.7766 0.3573 0.5189
vn -0.3652 -0.9186 0.1513
vn -0.8493 -0.3937 0.3518
vn -0.3768 0.9130 0.1561
vn -0.8629 0.3573 0.3574
vn -0.3876 -0.9186 0.0771
vn -0.9016 -0.3937 0.1793
vn -0.4000 0.9130 0.0796
vn -0.9160 0.3573 0.1822
vn -0.3952 -0.9186 -0.0000
vn -0.9192 -0.3937 -0.0000
vn -0.4079 0.9130 -0.0000
vn -0.9340 0.3573 -0.0000
vn -0.3876 -0.9186 -0.0771
vn -0.9016 -0.3937 -0.1793
vn -0.4000 0.9130 -0.0796
vn -0.9160 0.3573 -0.1822
vn -0.3652 -0.9186 -0.1513
vn -0.8493 -0.3937 -0.3518
vn -0.3768 0.9130 -0.1561
vn -0.8629 0.3573 -0.3574
vn -0.3286 -0.9186 -0.2196
vn -0.7643 -0.3937 -0.5107
vn -0.3391 0.9130 -0.2266
vn -0.7766 0.3573 -0.5189
vn -0.2795 -0.9186 -0.2795
vn -0.6500 -0.3937 -0.6500
vn -0.2884 0.9130 -0.2884
vn -0.6604 0.3573 -0.6604
vn -0.2196 -0.9186 -0.3286
vn -0.5107 -0.3937 -0.7643
vn -0.2266 0.9130 -0.3391
vn -0.5189 0.3573 -0.7766
vn -0.1513 -0.9186 -0.3652
vn -0.3518 -0.3937 -0.8493
vn -0.1561 0.9130 -0.3768
vn -0.3574 0.3573 -0.8629
vn -0.0771 -0.9186 -0.3876
vn -0.1793 -0.3937 -0.9016
vn -0.0796 0.9130 -0.4000
vn -0.1822 0.3573 -0.9160
vt 0.031250 0.512164
vt 0.031250 0.987836
vt 0.000000 0.987836
vt 0.000000 0.512164
vt 0.937500 0.512164
vt 0.937500 0.987836
vt 0.906250 0.987836
vt 0.906250 0.512164
vt 0.906250 0.512164
vt 0.906250 0.987836
vt 0.875000 0.987836
vt 0.875000 0.512164
vt 0.875000 0.512164
vt 0.843750 0.987836
vt 0.843750 0.512164
vt 0.843750 0.512164
vt 0.812500 0.987836
vt 0.812500 0.512164
vt 0.812500 0.512164
vt 0.781250 0.987836
vt 0.781250 0.512164
vt 0.781250 0.512164
vt 0.750000 0.987836
vt 0.750000 0.512164
vt 0.750000 0.512164
vt 0.718750 0.987836
vt 0.718750 0.512164
vt 0.718750 0.512164
vt 0.687500 0.987836
vt 0.687500 0.512164
vt 0.687500 0.512164
vt 0.656250 0.987836
vt 0.656250 0.512164
vt 0.656250 0.512164
vt 0.656250 0.987836
vt 0.625000 0.987836
vt 0.625000 0.512164
vt 0.625000 0.512164
vt 0.593750 0.987836
vt 0.593750 0.512164
vt 0.593750 0.512164
vt 0.562500 0.987836
vt 0.562500 0.512164
vt 0.562500 0.512164
vt 0.531250 0.987836
vt 0.531250 0.512164
vt 0.531250 0.512164
vt 0.531250 0.987836
vt 0.500000 0.987836
vt 0.500000 0.512164
vt 0.500000 0.512164
vt 0.468750 0.987836
vt 0.468750 0.512164
vt 0.468750 0.512164
vt 0.468750 0.987836
vt 0.437500 0.987836
vt 0.437500 0.512164
vt 0.437500 0.512164
vt 0.406250 0.987836
vt 0.406250 0.512164
vt 0.406250 0.512164
vt 0.375000 0.987836
vt 0.375000 0.512164
vt 0.375000 0.512164
vt 0.343750 0.987836
vt 0.343750 0.512164
vt 0.343750 0.512164
vt 0.312500 0.987836
vt 0.312500 0.512164
vt 0.312500 0.512164
vt 0.312500 0.987836
vt 0.281250 0.987836
vt 0.281250 0.512164
vt 0.281250 0.512164
vt 0.250000 0.987836
vt 0.250000 0.512164
vt 0.250000 0.512164
vt 0.218750 0.987836
vt 0.218750 0.512164
vt 0.218750 0.512164
vt 0.187500 0.987836
vt 0.187500 0.512164
vt 0.187500 0.512164
vt 0.156250 0.987836
vt 0.156250 0.512164
vt 0.125000 0.987836
vt 0.125000 0.512164
vt 0.125000 0.512164
vt 0.093750 0.987836
vt 0.093750 0.512164
vt 0.093750 0.512164
vt 0.093750 0.987836
vt 0.062500 0.987836
vt 0.062500 0.512164
vt 0.062500 0.512164
vt 0.062500 0.987836
vt 0.031250 0.512164
vt 0.968750 0.512164
vt 0.968750 0.987836
vt 0.937500 0.512164
vt 0.293387 0.468120
vt 0.250000 0.472393
vt 0.206613 0.468120
vt 0.164894 0.455465
vt 0.126445 0.434913
vt 0.092744 0.407256
vt 0.065087 0.373555
vt 0.044535 0.335106
vt 0.031880 0.293387
vt 0.027606 0.250000
vt 0.031880 0.206613
vt 0.044535 0.164894
vt 0.065087 0.126445
vt 0.092744 0.092744
vt 0.126445 0.065087
vt 0.164894 0.044535
vt 0.206613 0.031880
vt 0.250000 0.027606
vt 0.293387 0.031880
vt 0.335106 0.044535
vt 0.373555 0.065087
vt 0.407256 0.092744
vt 0.434913 0.126445
vt 0.455465 0.164894
vt 0.468120 0.206613
vt 0.472394 0.250000
vt 0.468120 0.293387
vt 0.455465 0.335106
vt 0.434913 0.373555
vt 0.407256 0.407256
vt 0.373555 0.434913
vt 0.335106 0.455465
vt 1.000000 0.512164
vt 1.000000 0.987836
vt 0.968750 0.512164
vt 0.969996 0.500000
vt 0.998754 0.500000
vt 0.998854 1.000000
vt 0.969896 1.000000
vt 0.938746 0.500000
vt 0.967504 0.500000
vt 0.967604 1.000000
vt 0.938646 1.000000
vt 0.907495 0.500000
vt 0.936254 0.500000
vt 0.936354 1.000000
vt 0.907396 1.000000
vt 0.876246 0.500000
vt 0.905004 0.500000
vt 0.905104 1.000000
vt 0.876146 1.000000
vt 0.844996 0.500000
vt 0.873754 0.500000
vt 0.873854 1.000000
vt 0.844896 1.000000
vt 0.813746 0.500000
vt 0.842504 0.500000
vt 0.842604 1.000000
vt 0.813646 1.000000
vt 0.782496 0.500000
vt 0.811254 0.500000
vt 0.811354 1.000000
vt 0.782396 1.000000
vt 0.751246 0.500000
vt 0.780004 0.500000
vt 0.780104 1.000000
vt 0.751146 1.000000
vt 0.719996 0.500000
vt 0.748754 0.500000
vt 0.748854 1.000000
vt 0.719896 1.000000
vt 0.688746 0.500000
vt 0.717504 0.500000
vt 0.717604 1.000000
vt 0.688646 1.000000
vt 0.657496 0.500000
vt 0.686254 0.500000
vt 0.686354 1.000000
vt 0.657396 1.000000
vt 0.626246 0.500000
vt 0.655004 0.500000
vt 0.655104 1.000000
vt 0.626146 1.000000
vt 0.594996 0.500000
vt 0.623754 0.500000
vt 0.623854 1.000000
vt 0.594896 1.000000
vt 0.563746 0.500000
vt 0.592504 0.500000
vt 0.592604 1.000000
vt 0.563646 1.000000
vt 0.532496 0.500000
vt 0.561254 0.500000
vt 0.561354 1.000000
vt 0.532396 1.000000
vt 0.501246 0.500000
vt 0.530004 0.500000
vt 0.530104 1.000000
vt 0.501146 1.000000
vt 0.469996 0.500000
vt 0.498754 0.500000
vt 0.498854 1.000000
vt 0.469896 1.000000
vt 0.438746 0.500000
vt 0.467504 0.500000
vt 0.467604 1.000000
vt 0.438646 1.000000
vt 0.407496 0.500000
vt 0.436254 0.500000
vt 0.436354 1.000000
vt 0.407396 1.000000
vt 0.376246 0.500000
vt 0.405004 0.500000
vt 0.405104 1.000000
vt 0.376146 1.000000
vt 0.344996 0.500000
vt 0.373754 0.500000
vt 0.373854 1.000000
vt 0.344896 1.000000
vt 0.313746 0.500000
vt 0.342504 0.500000
vt 0.342604 1.000000
vt 0.313646 1.000000
vt 0.282496 0.500000
vt 0.311254 0.500000
vt 0.311354 1.000000
vt 0.282396 1.000000
vt 0.251246 0.500000
vt 0.280004 0.500000
vt 0.280104 1.000000
vt 0.251146 1.000000
vt 0.219996 0.500000
vt 0.248754 0.500000
vt 0.248854 1.000000
vt 0.219896 1.000000
vt 0.188746 0.500000
vt 0.217504 0.500000
vt 0.217604 1.000000
vt 0.188646 1.000000
vt 0.157496 0.500000
vt 0.186254 0.500000
vt 0.186354 1.000000
vt 0.157396 1.000000
vt 0.126246 0.500000
vt 0.155004 0.500000
vt 0.155104 1.000000
vt 0.126146 1.000000
vt 0.094996 0.500000
vt 0.123754 0.500000
vt 0.123854 1.000000
vt 0.094896 1.000000
vt 0.063746 0.500000
vt 0.092504 0.500000
vt 0.092604 1.000000
vt 0.063646 1.000000
vt 0.032496 0.500000
vt 0.061254 0.500000
vt 0.061354 1.000000
vt 0.032396 1.000000
vt 0.001246 0.500000
vt 0.030004 0.500000
vt 0.030104 1.000000
vt 0.001146 1.000000
vt 0.750000 0.470868
vt 0.793089 0.466624
vt 0.834522 0.454055
vt 0.872708 0.433645
vt 0.906177 0.406177
vt 0.933645 0.372708
vt 0.954055 0.334522
vt 0.966624 0.293089
vt 0.970868 0.250000
vt 0.966624 0.206911
vt 0.954055 0.165478
vt 0.933645 0.127293
vt 0.906177 0.093823
vt 0.872707 0.066355
vt 0.834522 0.045945
vt 0.793089 0.033376
vt 0.750000 0.029132
vt 0.706911 0.033376
vt 0.665478 0.045945
vt 0.627292 0.066355
vt 0.593823 0.093823
vt 0.566355 0.127293
vt 0.545945 0.165478
vt 0.533376 0.206911
vt 0.529132 0.250000
vt 0.533376 0.293089
vt 0.545945 0.334522
vt 0.566355 0.372707
vt 0.593823 0.406177
vt 0.627293 0.433645
vt 0.665478 0.454055
vt 0.706911 0.466624
s 1
usemtl Stopper
f 126/1/126 128/2/128 4/3/4 2/4/2
f 10/5/10 12/6/12 16/7/16 14/8/14
f 14/9/14 16/10/16 20/11/20 18/12/18
f 18/13/18 20/11/20 24/14/24 22/15/22
f 22/16/22 24/14/24 28/17/28 26/18/26
f 26/19/26 28/17/28 32/20/32 30/21/30
f 30/22/30 32/20/32 36/23/36 34/24/34
f 34/25/34 36/23/36 40/26/40 38/27/38
f 38/28/38 40/26/40 44/29/44 42/30/42
f 42/31/42 44/29/44 48/32/48 46/33/46
f 46/34/46 48/35/48 52/36/52 50/37/50
f 50/38/50 52/36/52 56/39/56 54/40/54
f 54/41/54 56/39/56 60/42/60 58/43/58
f 58/44/58 60/42/60 64/45/64 62/46/62
f 62/47/62 64/48/64 68/49/68 66/50/66
f 66/51/66 68/49/68 72/52/72 70/53/70
f 70/54/70 72/55/72 76/56/76 74/57/74
f 74/58/74 76/56/76 80/59/80 78/60/78
f 78/61/78 80/59/80 84/62/84 82/63/82
f 82/64/82 84/62/84 88/65/88 86/66/86
f 86/67/86 88/65/88 92/68/92 90/69/90
f 90/70/90 92/71/92 96/72/96 94/73/94
f 94/74/94 96/72/96 100/75/100 98/76/98
f 98/77/98 100/75/100 104/78/104 102/79/102
f 102/80/102 104/78/104 108/81/108 106/82/106
f 106/83/106 108/81/108 112/84/112 110/85/110
f 110/85/110 112/84/112 116/86/116 114/87/114
f 114/88/114 116/86/116 120/89/120 118/90/118
f 118/91/118 120/92/120 124/93/124 122/94/122
f 122/95/122 124/96/124 128/2/128 126/97/126
f 6/98/6 8/99/8 12/6/12 10/100/10
f 7/101/7 3/102/3 127/103/127 123/104/123 119/105/119 115/106/115 111/107/111 107/108/107 103/109/103 99/110/99 95/111/95 91/112/91 87/113/87 83/114/83 79/115/79 75/116/75 71/117/71 67/118/67 63/119/63 59/120/59 55/121/55 51/122/51 47/123/47 43/124/43 39/125/39 35/126/35 31/127/31 27/128/27 23/129/23 19/130/19 15/131/15 11/132/11
f 2/133/2 4/134/4 8/99/8 6/135/6
f 2/133/2 6/135/6 5/136/5 1/137/1
f 8/99/8 4/134/4 3/138/3 7/139/7
f 6/98/6 10/100/10 9/140/9 5/141/5
f 12/6/12 8/99/8 7/142/7 11/143/11
f 10/5/10 14/8/14 13/144/13 9/145/9
f 16/7/16 12/6/12 11/146/11 15/147/15
f 14/9/14 18/12/18 17/148/17 13/149/13
f 20/11/20 16/10/16 15/150/15 19/151/19
f 18/13/18 22/15/22 21/152/21 17/153/17
f 24/14/24 20/11/20 19/154/19 23/155/23
f 22/16/22 26/18/26 25/156/25 21/157/21
f 28/17/28 24/14/24 23/158/23 27/159/27
f 26/19/26 30/21/30 29/160/29 25/161/25
f 32/20/32 28/17/28 27/162/27 31/163/31
f 30/22/30 34/24/34 33/164/33 29/165/29
f 36/23/36 32/20/32 31/166/31 35/167/35
f 34/25/34 38/27/38 37/168/37 33/169/33
f 40/26/40 36/23/36 35/170/35 39/171/39
f 38/28/38 42/30/42 41/172/41 37/173/37
f 44/29/44 40/26/40 39/174/39 43/175/43
f 42/31/42 46/33/46 45/176/45 41/177/41
f 48/32/48 44/29/44 43/178/43 47/179/47
f 46/34/46 50/37/50 49/180/49 45/181/45
f 52/36/52 48/35/48 47/182/47 51/183/51
f 50/38/50 54/40/54 53/184/53 49/185/49
f 56/39/56 52/36/52 51/186/51 55/187/55
f 54/41/54 58/43/58 57/188/57 53/189/53
f 60/42/60 56/39/56 55/190/55 59/191/59
f 58/44/58 62/46/62 61/192/61 57/193/57
f 64/45/64 60/42/60 59/194/59 63/195/63
f 62/47/62 66/50/66 65/196/65 61/197/61
f 68/49/68 64/48/64 63/198/63 67/199/67
f 66/51/66 70/53/70 69/200/69 65/201/65
f 72/52/72 68/49/68 67/202/67 71/203/71
f 70/54/70 74/57/74 73/204/73 69/205/69
f 76/56/76 72/55/72 71/206/71 75/207/75
f 74/58/74 78/60/78 77/208/77 73/209/73
f 80/59/80 76/56/76 75/210/75 79/211/79
f 78/61/78 82/63/82 81/212/81 77/213/77
f 84/62/84 80/59/80 79/214/79 83/215/83
f 82/64/82 86/66/86 85/216/85 81/217/81
f 88/65/88 84/62/84 83/218/83 87/219/87
f 86/67/86 90/69/90 89/220/89 85/221/85
f 92/68/92 88/65/88 87/222/87 91/223/91
f 90/70/90 94/73/94 93/224/93 89/225/89
f 96/72/96 92/71/92 91/226/91 95/227/95
f 94/74/94 98/76/98 97/228/97 93/229/93
f 100/75/100 96/72/96 95/230/95 99/231/99
f 98/77/98 102/79/102 101/232/101 97/233/97
f 104/78/104 100/75/100 99/234/99 103/235/103
f 102/80/102 106/82/106 105/236/105 101/237/101
f 108/81/108 104/78/104 103/238/103 107/239/107
f 106/83/106 110/85/110 109/240/109 105/241/105
f 112/84/112 108/81/108 107/242/107 111/243/111
f 110/85/110 114/87/114 113/244/113 109/245/109
f 116/86/116 112/84/112 111/246/111 115/247/115
f 114/88/114 118/90/118 117/248/117 113/249/113
f 120/89/120 116/86/116 115/250/115 119/251/119
f 118/91/118 122/94/122 121/252/121 117/253/117
f 124/93/124 120/92/120 119/254/119 123/255/123
f 122/95/122 126/97/126 125/256/125 121/257/121
f 128/2/128 124/96/124 123/258/123 127/259/127
f 126/1/126 2/4/2 1/260/1 125/261/125
f 4/3/4 128/2/128 127/262/127 3/263/3
f 1/264/1 5/265/5 9/266/9 13/267/13 17/268/17 21/269/21 25/270/25 29/271/29 33/272/33 37/273/37 41/274/41 45/275/45 49/276/49 53/277/53 57/278/57 61/279/61 65/280/65 69/281/69 73/282/73 77/283/77 81/284/81 85/285/85 89/286/89 93/287/93 97/288/97 101/289/101 105/290/105 109/291/109 113/292/113 117/293/117 121/294/121 125/295/125
